<svg height="512pt" viewBox="0 0 512 512" width="512pt" xmlns="http://www.w3.org/2000/svg"><path d="m96 448h96v16h-96zm0 0"/><path d="m16 408h16v16h-16zm0 0"/><path d="m48 408h80v16h-80zm0 0"/><path d="m192 368h32v16h-32zm0 0"/><path d="m48 368h112v16h-112zm0 0"/><path d="m432 40h32v16h-32zm0 0"/><path d="m336 72h32v16h-32zm0 0"/><path d="m336 104h64v16h-64zm0 0"/><path d="m336 40h80v16h-80zm0 0"/><path d="m384 72h80v16h-80zm0 0"/><path d="m64 136h-16v-104h72v16h-56zm0 0"/><path d="m56 72h48v16h-48zm0 0"/><path d="m240 208c-13.253906 0-24-10.746094-24-24v-64h16v64c0 4.417969 3.582031 8 8 8s8-3.582031 8-8v-8h16v8c0 13.253906-10.746094 24-24 24zm0 0"/><path d="m200 144h48v16h-48zm0 0"/><path d="m0 496h64v16h-64zm0 0"/><path d="m0 322.230469h32v16h-32zm0 0"/><path d="m0 288h128v16h-128zm0 0"/><path d="m0 256h48v16h-48zm0 0"/><path d="m434.960938 160h77.039062v-160h-224v88h-120v-88h-168v168h52.6875l59.3125 59.3125v-59.3125h24v72h72v59.3125l59.3125-59.3125h68.6875v56.367188c.003906 3.3125-1.019531 6.539062-2.9375 9.242187l-21.421875 30.292969c-3 4.242187-7.871094 6.761718-13.066406 6.761718h-26.574219v-22.664062h-208v16h192v160h-160v16h176v-24h37.785156l40 24h74.214844c15.464844 0 28-12.535156 28-28v-13.167969c11.859375-3.550781 19.988281-14.453125 20-26.832031v-13.167969c11.859375-3.550781 19.988281-14.453125 20-26.832031v-13.167969c13.320312-3.972656 21.710938-17.117187 19.703125-30.875-2.007813-13.753906-13.800781-23.957031-27.703125-23.957031h-84v-48c-.035156-30.914062-25.085938-55.964844-56-56h-8v-72h32v57.390625zm-338.960938-8v36.6875l-36.6875-36.6875h-43.3125v-136h136v136zm224 72h-59.3125l-36.6875 36.6875v-36.6875h-72v-56h16v-64h120v56h32zm26.128906 90.847656c3.828125-5.398437 5.882813-11.859375 5.871094-18.480468v-47.566407c18.613281 3.824219 31.980469 20.199219 32 39.199219v64h100c6.628906 0 12 5.371094 12 12s-5.371094 12-12 12h-52v16h44v12c0 6.628906-5.371094 12-12 12h-48v16h40v12c0 6.628906-5.371094 12-12 12h-28v16h20v12c0 6.628906-5.371094 12-12 12h-69.785156l-40-24h-42.214844v-113.335938h26.574219c10.386719-.003906 20.125-5.046874 26.128906-13.519531zm-42.128906-170.847656v-128h192v128h-66.960938l-45.039062 38.609375v-38.609375zm0 0"/></svg>